<svg width="1440" height="1024" viewBox="0 0 1440 1024" fill="none" xmlns="http://www.w3.org/2000/svg">
<mask id="mask0" mask-type="alpha" maskUnits="userSpaceOnUse" x="0" y="0" width="1440" height="1024">
<rect width="1440" height="1024" fill="#C4C4C4"/>
</mask>
<g mask="url(#mask0)">
<path d="M84.4869 543.167C27.8849 537.807 -13.6552 487.578 -8.29559 430.976C-2.93599 374.374 246.222 155.859 302.823 161.219C359.425 166.578 400.965 216.808 395.606 273.41C390.246 330.012 141.089 548.527 84.4869 543.167Z" fill="url(#paint0_linear)"/>
<path d="M805.648 1031.73C742.882 1027.41 695.495 973.038 699.805 910.271C704.116 847.505 973.488 598.663 1036.25 602.974C1099.02 607.284 1146.41 661.661 1142.1 724.427C1137.79 787.193 868.414 1036.04 805.648 1031.73Z" fill="url(#paint1_linear)"/>
<path d="M306.801 546.405C298.626 506.764 324.136 468.001 363.777 459.827C403.419 451.653 604.174 575.586 612.348 615.228C620.523 654.869 595.013 693.632 555.372 701.806C515.73 709.98 314.975 586.047 306.801 546.405Z" fill="url(#paint2_linear)"/>
<path d="M1360.73 419.369C1355.61 488.927 1295.07 541.164 1225.51 536.044C1155.96 530.923 881.559 230.953 886.68 161.395C891.8 91.8379 952.338 39.6011 1021.9 44.7212C1091.45 49.8413 1365.85 349.812 1360.73 419.369Z" fill="url(#paint3_linear)"/>
</g>
<defs>
<linearGradient id="paint0_linear" x1="442.665" y1="87.7754" x2="52.9457" y2="471.977" gradientUnits="userSpaceOnUse">
<stop stop-color="#89A7E5"/>
<stop offset="1" stop-color="#89A7E5" stop-opacity="0"/>
</linearGradient>
<linearGradient id="paint1_linear" x1="1150.25" y1="598.653" x2="727.238" y2="990.134" gradientUnits="userSpaceOnUse">
<stop stop-color="#89A7E5"/>
<stop offset="1" stop-color="#89A7E5" stop-opacity="0"/>
</linearGradient>
<linearGradient id="paint2_linear" x1="634.724" y1="685.128" x2="319.026" y2="490.627" gradientUnits="userSpaceOnUse">
<stop stop-color="#89A7E5"/>
<stop offset="1" stop-color="#89A7E5" stop-opacity="0"/>
</linearGradient>
<linearGradient id="paint3_linear" x1="882.51" y1="34.9945" x2="1314.19" y2="506.067" gradientUnits="userSpaceOnUse">
<stop stop-color="#89A7E5"/>
<stop offset="1" stop-color="#89A7E5" stop-opacity="0"/>
</linearGradient>
</defs>
</svg>
