<svg width="414" height="896" viewBox="0 0 414 896" fill="none" xmlns="http://www.w3.org/2000/svg">
<mask id="mask0" mask-type="alpha" maskUnits="userSpaceOnUse" x="0" y="0" width="414" height="896">
<path d="M0 0H414V896H0V0Z" fill="#C4C4C4"/>
</mask>
<g mask="url(#mask0)">
<path d="M559 604.5C559 660.833 513.333 706.5 457 706.5C400.667 706.5 279 601.333 279 545C279 488.667 324.667 443 381 443C437.333 443 559 548.167 559 604.5Z" fill="url(#paint0_linear)"/>
<path d="M101.374 488.631C45.1797 492.579 -3.57575 450.225 -7.52409 394.031C-11.4724 337.836 84.9083 209.097 141.103 205.149C197.297 201.201 246.053 243.555 250.001 299.749C253.949 355.944 157.569 484.682 101.374 488.631Z" fill="url(#paint1_linear)"/>
</g>
<defs>
<linearGradient id="paint0_linear" x1="320" y1="469" x2="381" y2="647" gradientUnits="userSpaceOnUse">
<stop stop-color="#FFFCFC"/>
<stop offset="1" stop-color="#C4C4C4" stop-opacity="0"/>
</linearGradient>
<linearGradient id="paint1_linear" x1="266" y1="189.5" x2="10" y2="438" gradientUnits="userSpaceOnUse">
<stop stop-color="#FFFCFC"/>
<stop offset="1" stop-color="#C4C4C4" stop-opacity="0"/>
</linearGradient>
</defs>
</svg>
